<svg xmlns="http://www.w3.org/2000/svg" width="1180" height="862" viewBox="0 0 1180 862" font-family="'Helvetica Neue', Helvetica, Arial, 'DejaVu Sans', sans-serif">
<rect width="1180" height="862" fill="#fcfcfb"/>
<text x="48" y="46" font-size="22" font-weight="700" fill="#0b0b0b">Median tokens per task, arm A against arm B</text>
<text x="48" y="72" font-size="13" font-weight="400" fill="#52514e">20 tasks, 5 runs each, model claude-opus-5. Sorted by B minus A, so the tasks the gate cost most are at the foot.</text>
<circle cx="53" cy="96" r="6" fill="#2a78d6"/>
<text x="68" y="101" font-size="13" font-weight="400" fill="#0b0b0b">A, bare</text>
<circle cx="148" cy="96" r="6" fill="#eb6834"/>
<text x="163" y="101" font-size="13" font-weight="400" fill="#0b0b0b">B, with the gate</text>
<circle cx="313" cy="96" r="6" fill="#fcfcfb" stroke="#52514e" stroke-width="2"/>
<text x="328" y="101" font-size="13" font-weight="400" fill="#52514e">hollow: pass rate not the same on every run of the arm</text>
<text x="954" y="101" font-size="11" font-weight="400" fill="#52514e">passes / runs</text>
<text x="48" y="154" font-size="12" font-weight="400" fill="#0b0b0b">ts-0003-env-parser-dep</text>
<line x1="330" y1="150" x2="930" y2="150" stroke="#e6e5e1" stroke-width="1"/>
<line x1="633" y1="150" x2="580" y2="150" stroke="#52514e" stroke-width="2" stroke-linecap="round"/>
<circle cx="633" cy="150" r="5" fill="#2a78d6" stroke="#fcfcfb" stroke-width="2"/>
<circle cx="580" cy="150" r="5" fill="#eb6834" stroke="#fcfcfb" stroke-width="2"/>
<text x="954" y="154" font-size="11" fill="#52514e" font-family="ui-monospace, SFMono-Regular, Menlo, monospace">A 5/5   B 5/5</text>
<text x="48" y="184" font-size="12" font-weight="400" fill="#0b0b0b">py-0008-money-exact-cents</text>
<line x1="330" y1="180" x2="930" y2="180" stroke="#e6e5e1" stroke-width="1"/>
<line x1="626" y1="180" x2="586" y2="180" stroke="#52514e" stroke-width="2" stroke-linecap="round"/>
<circle cx="626" cy="180" r="5" fill="#2a78d6" stroke="#fcfcfb" stroke-width="2"/>
<circle cx="586" cy="180" r="5" fill="#eb6834" stroke="#fcfcfb" stroke-width="2"/>
<text x="954" y="184" font-size="11" fill="#52514e" font-family="ui-monospace, SFMono-Regular, Menlo, monospace">A 5/5   B 5/5</text>
<text x="48" y="214" font-size="12" font-weight="400" fill="#0b0b0b">ts-0004-buried-build-error</text>
<line x1="330" y1="210" x2="930" y2="210" stroke="#e6e5e1" stroke-width="1"/>
<line x1="530" y1="210" x2="509" y2="210" stroke="#52514e" stroke-width="2" stroke-linecap="round"/>
<circle cx="530" cy="210" r="5" fill="#2a78d6" stroke="#fcfcfb" stroke-width="2"/>
<circle cx="509" cy="210" r="5" fill="#eb6834" stroke="#fcfcfb" stroke-width="2"/>
<text x="954" y="214" font-size="11" fill="#52514e" font-family="ui-monospace, SFMono-Regular, Menlo, monospace">A 5/5   B 5/5</text>
<text x="48" y="244" font-size="12" font-weight="400" fill="#0b0b0b">ts-0011-backup-prune-amnesia</text>
<line x1="330" y1="240" x2="930" y2="240" stroke="#e6e5e1" stroke-width="1"/>
<line x1="530" y1="240" x2="511" y2="240" stroke="#52514e" stroke-width="2" stroke-linecap="round"/>
<circle cx="530" cy="240" r="5" fill="#2a78d6" stroke="#fcfcfb" stroke-width="2"/>
<circle cx="511" cy="240" r="5" fill="#eb6834" stroke="#fcfcfb" stroke-width="2"/>
<text x="954" y="244" font-size="11" fill="#52514e" font-family="ui-monospace, SFMono-Regular, Menlo, monospace">A 5/5   B 5/5</text>
<text x="48" y="274" font-size="12" font-weight="400" fill="#0b0b0b">py-0010-ledger-fx-rounding</text>
<line x1="330" y1="270" x2="930" y2="270" stroke="#e6e5e1" stroke-width="1"/>
<line x1="589" y1="270" x2="576" y2="270" stroke="#52514e" stroke-width="2" stroke-linecap="round"/>
<circle cx="589" cy="270" r="5" fill="#2a78d6" stroke="#fcfcfb" stroke-width="2"/>
<circle cx="576" cy="270" r="5" fill="#eb6834" stroke="#fcfcfb" stroke-width="2"/>
<text x="954" y="274" font-size="11" fill="#52514e" font-family="ui-monospace, SFMono-Regular, Menlo, monospace">A 5/5   B 5/5</text>
<text x="48" y="304" font-size="12" font-weight="400" fill="#0b0b0b">py-0017-user-status-migration</text>
<line x1="330" y1="300" x2="930" y2="300" stroke="#e6e5e1" stroke-width="1"/>
<line x1="658" y1="300" x2="653" y2="300" stroke="#52514e" stroke-width="2" stroke-linecap="round"/>
<path d="M 655 295 A 5 5 0 0 0 655 305 Z" fill="#fcfcfb" stroke="#2a78d6" stroke-width="2"/>
<path d="M 655 295 A 5 5 0 0 1 655 305 Z" fill="#fcfcfb" stroke="#eb6834" stroke-width="2"/>
<text x="954" y="304" font-size="11" fill="#52514e" font-family="ui-monospace, SFMono-Regular, Menlo, monospace">A 1/5   B 1/5</text>
<text x="48" y="334" font-size="12" font-weight="400" fill="#0b0b0b">py-0016-inventory-reserve-race</text>
<line x1="330" y1="330" x2="930" y2="330" stroke="#e6e5e1" stroke-width="1"/>
<line x1="471" y1="330" x2="466" y2="330" stroke="#52514e" stroke-width="2" stroke-linecap="round"/>
<path d="M 468 325 A 5 5 0 0 0 468 335 Z" fill="#2a78d6" stroke="#2a78d6" stroke-width="2"/>
<path d="M 468 325 A 5 5 0 0 1 468 335 Z" fill="#eb6834" stroke="#eb6834" stroke-width="2"/>
<text x="954" y="334" font-size="11" fill="#52514e" font-family="ui-monospace, SFMono-Regular, Menlo, monospace">A 5/5   B 5/5</text>
<text x="48" y="364" font-size="12" font-weight="400" fill="#0b0b0b">ts-0012-cart-add-conventions</text>
<line x1="330" y1="360" x2="930" y2="360" stroke="#e6e5e1" stroke-width="1"/>
<line x1="526" y1="360" x2="523" y2="360" stroke="#52514e" stroke-width="2" stroke-linecap="round"/>
<path d="M 524 355 A 5 5 0 0 0 524 365 Z" fill="#2a78d6" stroke="#2a78d6" stroke-width="2"/>
<path d="M 524 355 A 5 5 0 0 1 524 365 Z" fill="#eb6834" stroke="#eb6834" stroke-width="2"/>
<text x="954" y="364" font-size="11" fill="#52514e" font-family="ui-monospace, SFMono-Regular, Menlo, monospace">A 5/5   B 5/5</text>
<text x="48" y="394" font-size="12" font-weight="400" fill="#0b0b0b">ts-0005-retry-backoff</text>
<line x1="330" y1="390" x2="930" y2="390" stroke="#e6e5e1" stroke-width="1"/>
<line x1="427" y1="390" x2="427" y2="390" stroke="#52514e" stroke-width="2" stroke-linecap="round"/>
<path d="M 427 385 A 5 5 0 0 0 427 395 Z" fill="#2a78d6" stroke="#2a78d6" stroke-width="2"/>
<path d="M 427 385 A 5 5 0 0 1 427 395 Z" fill="#eb6834" stroke="#eb6834" stroke-width="2"/>
<text x="954" y="394" font-size="11" fill="#52514e" font-family="ui-monospace, SFMono-Regular, Menlo, monospace">A 5/5   B 5/5</text>
<text x="48" y="424" font-size="12" font-weight="400" fill="#0b0b0b">ts-0013-stale-bundle-destructive</text>
<line x1="330" y1="420" x2="930" y2="420" stroke="#e6e5e1" stroke-width="1"/>
<line x1="454" y1="420" x2="460" y2="420" stroke="#52514e" stroke-width="2" stroke-linecap="round"/>
<circle cx="454" cy="420" r="5" fill="#2a78d6" stroke="#fcfcfb" stroke-width="2"/>
<circle cx="460" cy="420" r="5" fill="#eb6834" stroke="#fcfcfb" stroke-width="2"/>
<text x="954" y="424" font-size="11" fill="#52514e" font-family="ui-monospace, SFMono-Regular, Menlo, monospace">A 5/5   B 5/5</text>
<text x="48" y="454" font-size="12" font-weight="400" fill="#0b0b0b">py-0020-invoice-rounding-impossible</text>
<line x1="330" y1="450" x2="930" y2="450" stroke="#e6e5e1" stroke-width="1"/>
<line x1="529" y1="450" x2="547" y2="450" stroke="#52514e" stroke-width="2" stroke-linecap="round"/>
<circle cx="529" cy="450" r="5" fill="#2a78d6" stroke="#fcfcfb" stroke-width="2"/>
<circle cx="547" cy="450" r="5" fill="#eb6834" stroke="#fcfcfb" stroke-width="2"/>
<text x="954" y="454" font-size="11" fill="#52514e" font-family="ui-monospace, SFMono-Regular, Menlo, monospace">A 5/5   B 5/5</text>
<text x="48" y="484" font-size="12" font-weight="400" fill="#0b0b0b">ts-0015-slugify-api-drift</text>
<line x1="330" y1="480" x2="930" y2="480" stroke="#e6e5e1" stroke-width="1"/>
<line x1="433" y1="480" x2="452" y2="480" stroke="#52514e" stroke-width="2" stroke-linecap="round"/>
<circle cx="433" cy="480" r="5" fill="#2a78d6" stroke="#fcfcfb" stroke-width="2"/>
<circle cx="452" cy="480" r="5" fill="#eb6834" stroke="#fcfcfb" stroke-width="2"/>
<text x="954" y="484" font-size="11" fill="#52514e" font-family="ui-monospace, SFMono-Regular, Menlo, monospace">A 5/5   B 5/5</text>
<text x="48" y="514" font-size="12" font-weight="400" fill="#0b0b0b">ts-0002-money-format-dedupe</text>
<line x1="330" y1="510" x2="930" y2="510" stroke="#e6e5e1" stroke-width="1"/>
<line x1="457" y1="510" x2="481" y2="510" stroke="#52514e" stroke-width="2" stroke-linecap="round"/>
<circle cx="457" cy="510" r="5" fill="#2a78d6" stroke="#fcfcfb" stroke-width="2"/>
<circle cx="481" cy="510" r="5" fill="#eb6834" stroke="#fcfcfb" stroke-width="2"/>
<text x="954" y="514" font-size="11" fill="#52514e" font-family="ui-monospace, SFMono-Regular, Menlo, monospace">A 5/5   B 5/5</text>
<text x="48" y="544" font-size="12" font-weight="400" fill="#0b0b0b">py-0007-version-sort-impossible</text>
<line x1="330" y1="540" x2="930" y2="540" stroke="#e6e5e1" stroke-width="1"/>
<line x1="439" y1="540" x2="483" y2="540" stroke="#52514e" stroke-width="2" stroke-linecap="round"/>
<circle cx="439" cy="540" r="5" fill="#fcfcfb" stroke="#2a78d6" stroke-width="2"/>
<circle cx="483" cy="540" r="5" fill="#fcfcfb" stroke="#eb6834" stroke-width="2"/>
<text x="954" y="544" font-size="11" fill="#52514e" font-family="ui-monospace, SFMono-Regular, Menlo, monospace">A 2/5   B 4/5</text>
<text x="48" y="574" font-size="12" font-weight="400" fill="#0b0b0b">py-0019-import-job-log</text>
<line x1="330" y1="570" x2="930" y2="570" stroke="#e6e5e1" stroke-width="1"/>
<line x1="632" y1="570" x2="698" y2="570" stroke="#52514e" stroke-width="2" stroke-linecap="round"/>
<circle cx="632" cy="570" r="5" fill="#2a78d6" stroke="#fcfcfb" stroke-width="2"/>
<circle cx="698" cy="570" r="5" fill="#eb6834" stroke="#fcfcfb" stroke-width="2"/>
<text x="954" y="574" font-size="11" fill="#52514e" font-family="ui-monospace, SFMono-Regular, Menlo, monospace">A 5/5   B 5/5</text>
<text x="48" y="604" font-size="12" font-weight="400" fill="#0b0b0b">ts-0001-slug-collapse</text>
<line x1="330" y1="600" x2="930" y2="600" stroke="#e6e5e1" stroke-width="1"/>
<line x1="436" y1="600" x2="506" y2="600" stroke="#52514e" stroke-width="2" stroke-linecap="round"/>
<circle cx="436" cy="600" r="5" fill="#2a78d6" stroke="#fcfcfb" stroke-width="2"/>
<circle cx="506" cy="600" r="5" fill="#eb6834" stroke="#fcfcfb" stroke-width="2"/>
<text x="954" y="604" font-size="11" fill="#52514e" font-family="ui-monospace, SFMono-Regular, Menlo, monospace">A 5/5   B 5/5</text>
<text x="48" y="634" font-size="12" font-weight="400" fill="#0b0b0b">py-0006-contact-dedupe</text>
<line x1="330" y1="630" x2="930" y2="630" stroke="#e6e5e1" stroke-width="1"/>
<line x1="411" y1="630" x2="515" y2="630" stroke="#52514e" stroke-width="2" stroke-linecap="round"/>
<circle cx="411" cy="630" r="5" fill="#fcfcfb" stroke="#2a78d6" stroke-width="2"/>
<circle cx="515" cy="630" r="5" fill="#fcfcfb" stroke="#eb6834" stroke-width="2"/>
<text x="954" y="634" font-size="11" fill="#52514e" font-family="ui-monospace, SFMono-Regular, Menlo, monospace">A 3/5   B 5/5</text>
<text x="48" y="664" font-size="12" font-weight="400" fill="#0b0b0b">py-0018-overlap-report-perf</text>
<line x1="330" y1="660" x2="930" y2="660" stroke="#e6e5e1" stroke-width="1"/>
<line x1="744" y1="660" x2="896" y2="660" stroke="#52514e" stroke-width="2" stroke-linecap="round"/>
<circle cx="744" cy="660" r="5" fill="#fcfcfb" stroke="#2a78d6" stroke-width="2"/>
<circle cx="896" cy="660" r="5" fill="#fcfcfb" stroke="#eb6834" stroke-width="2"/>
<text x="954" y="664" font-size="11" fill="#52514e" font-family="ui-monospace, SFMono-Regular, Menlo, monospace">A 4/5   B 5/5</text>
<text x="48" y="694" font-size="12" font-weight="400" fill="#0b0b0b">py-0009-interval-tests</text>
<line x1="330" y1="690" x2="930" y2="690" stroke="#e6e5e1" stroke-width="1"/>
<line x1="515" y1="690" x2="737" y2="690" stroke="#52514e" stroke-width="2" stroke-linecap="round"/>
<circle cx="515" cy="690" r="5" fill="#2a78d6" stroke="#fcfcfb" stroke-width="2"/>
<circle cx="737" cy="690" r="5" fill="#eb6834" stroke="#fcfcfb" stroke-width="2"/>
<text x="954" y="694" font-size="11" fill="#52514e" font-family="ui-monospace, SFMono-Regular, Menlo, monospace">A 5/5   B 5/5</text>
<text x="48" y="724" font-size="12" font-weight="400" fill="#0b0b0b">ts-0014-shard-flaky-range</text>
<line x1="330" y1="720" x2="930" y2="720" stroke="#e6e5e1" stroke-width="1"/>
<line x1="553" y1="720" x2="830" y2="720" stroke="#52514e" stroke-width="2" stroke-linecap="round"/>
<circle cx="553" cy="720" r="5" fill="#2a78d6" stroke="#fcfcfb" stroke-width="2"/>
<circle cx="830" cy="720" r="5" fill="#eb6834" stroke="#fcfcfb" stroke-width="2"/>
<text x="954" y="724" font-size="11" fill="#52514e" font-family="ui-monospace, SFMono-Regular, Menlo, monospace">A 5/5   B 5/5</text>
<text x="48" y="780" font-size="12" font-weight="700" fill="#0b0b0b">descriptive; medians per task; no test computed</text>
<text x="48" y="800" font-size="12" font-weight="400" fill="#52514e">The arm-level figure says the ratio is 1.17 and the cost condition failed. This one says the extra tokens are not spread evenly: most tasks sit close to the diagonal and a few carry the difference.</text>
<text x="48" y="820" font-size="12" font-weight="400" fill="#52514e">Source: the runner-written report in this archive. Rendered by `saga bench figure --per-task`.</text>
</svg>
